<svg width="510" height="510" viewBox="0 0 510 510" fill="none" xmlns="http://www.w3.org/2000/svg">
<path d="M236.998 53.3328C242.814 36.1015 267.186 36.1015 273.002 53.3329L295.473 119.905C299.152 130.805 311.598 135.961 321.908 130.855L384.871 99.6704C401.168 91.5987 418.401 108.832 410.33 125.129L379.145 188.092C374.039 198.402 379.195 210.848 390.095 214.527L456.667 236.998C473.899 242.814 473.898 267.186 456.667 273.002L390.095 295.473C379.195 299.152 374.039 311.598 379.145 321.908L410.33 384.871C418.401 401.168 401.168 418.401 384.871 410.33L321.908 379.145C311.598 374.039 299.152 379.195 295.473 390.095L273.002 456.667C267.186 473.899 242.814 473.898 236.998 456.667L214.527 390.095C210.848 379.195 198.402 374.039 188.092 379.145L125.129 410.33C108.832 418.401 91.5987 401.168 99.6704 384.871L130.855 321.908C135.961 311.598 130.805 299.152 119.905 295.473L53.3328 273.002C36.1015 267.186 36.1015 242.814 53.3329 236.998L119.905 214.527C130.805 210.848 135.961 198.402 130.855 188.092L99.6704 125.129C91.5987 108.832 108.832 91.5987 125.129 99.6704L188.092 130.855C198.402 135.961 210.848 130.805 214.527 119.905L236.998 53.3328Z" fill="#07543A"/>
<path d="M247.199 277.46C240.092 277.46 235.239 275.38 232.639 271.22C230.212 267.06 228.999 261.773 228.999 255.36C228.999 252.24 229.259 247.733 229.779 241.84C230.299 235.947 230.819 229.533 231.339 222.6C232.032 215.493 232.639 208.647 233.159 202.06C233.679 195.473 233.939 190.1 233.939 185.94C233.939 182.647 233.419 179.093 232.379 175.28C231.512 171.293 229.866 168.173 227.439 165.92C233.159 160.027 239.919 155.693 247.719 152.92C255.519 149.973 263.839 148.5 272.679 148.5C282.906 148.5 290.099 151.013 294.259 156.04C298.592 161.067 300.759 167.48 300.759 175.28C300.759 181.867 299.719 189.407 297.639 197.9C295.732 206.393 293.219 215.06 290.099 223.9C287.152 232.567 284.119 240.713 280.999 248.34C278.052 255.967 275.626 262.38 273.719 267.58C269.906 270.873 265.399 273.387 260.199 275.12C255.172 276.68 250.839 277.46 247.199 277.46ZM238.879 356.5C230.906 356.5 224.232 353.9 218.859 348.7C213.659 343.327 211.059 336.827 211.059 329.2C211.059 323.307 212.532 317.933 215.479 313.08C218.426 308.053 222.326 303.98 227.179 300.86C232.206 297.74 237.752 296.18 243.819 296.18C251.792 296.18 258.379 298.867 263.579 304.24C268.952 309.44 271.639 315.853 271.639 323.48C271.639 329.2 270.166 334.573 267.219 339.6C264.272 344.627 260.286 348.7 255.259 351.82C250.406 354.94 244.946 356.5 238.879 356.5Z" fill="#FFF3D9"/>
</svg>
